M48
; DRILL file {KiCad (5.1.10)-1} date 01/22/23 23:33:01
; FORMAT={-:-/ absolute / inch / decimal}
; #@! TF.CreationDate,2023-01-22T23:33:01+05:00
; #@! TF.GenerationSoftware,Kicad,Pcbnew,(5.1.10)-1
; #@! TF.FileFunction,Plated,1,2,PTH
FMAT,2
INCH
T1C0.0295
T2C0.0315
T3C0.0354
T4C0.0394
T5C0.0433
T6C0.0472
T7C0.0512
%
G90
G05
T1
X6.44Y-1.7225
X6.44Y-1.7725
X6.44Y-1.8225
X6.47Y-1.9725
X6.47Y-2.0225
X6.47Y-2.0725
X7.9725Y-2.5325
X8.0225Y-2.5325
X8.0725Y-2.5325
T2
X1.7275Y-2.7875
X1.7275Y-2.8875
X1.7275Y-2.9875
X1.7275Y-3.0875
X2.0275Y-2.7875
X2.0275Y-2.8875
X2.0275Y-2.9875
X2.0275Y-3.0875
X2.185Y-2.48
X2.185Y-2.88
X2.3125Y-2.8575
X2.7125Y-2.8575
X2.8375Y-2.755
X2.8375Y-2.855
X2.8375Y-2.955
X2.8375Y-3.055
X3.1375Y-2.755
X3.1375Y-2.855
X3.1375Y-2.955
X3.1375Y-3.055
X3.305Y-2.955
X3.4034Y-2.955
X3.5941Y-2.945
X3.595Y-1.8875
X3.595Y-2.2875
X3.6925Y-2.945
X3.695Y-1.5275
X3.745Y-1.6775
X3.745Y-1.7775
X3.745Y-1.8775
X3.745Y-1.9775
X3.8575Y-2.94
X3.8575Y-3.34
X3.995Y-3.3525
X4.045Y-1.6775
X4.045Y-1.7775
X4.045Y-1.8775
X4.045Y-1.9775
X4.095Y-1.5275
X4.395Y-3.3525
X4.5175Y-3.7875
X4.53Y-3.2575
X4.53Y-3.3575
X4.53Y-3.4575
X4.53Y-3.5575
X4.6159Y-3.7875
X4.7641Y-3.7825
X4.8025Y-1.62
X4.8025Y-1.88
X4.83Y-3.2575
X4.83Y-3.3575
X4.83Y-3.4575
X4.83Y-3.5575
X4.8625Y-3.7825
X5.11Y-3.0775
X5.2025Y-1.62
X5.2025Y-1.88
X5.3325Y-1.78
X5.3325Y-1.88
X5.3325Y-1.98
X5.3325Y-2.08
X5.43Y-2.8775
X5.4425Y-1.64
X5.51Y-3.0775
X5.5409Y-1.64
X5.6325Y-1.78
X5.6325Y-1.88
X5.6325Y-1.98
X5.6325Y-2.08
X5.83Y-2.8775
X5.96Y-2.7825
X5.96Y-2.8825
X5.96Y-2.9825
X5.96Y-3.0825
X6.26Y-2.7825
X6.26Y-2.8825
X6.26Y-2.9825
X6.26Y-3.0825
X6.39Y-2.975
X6.5675Y-4.13
X6.615Y-3.6825
X6.615Y-3.7825
X6.615Y-3.8825
X6.615Y-3.9825
X6.7241Y-2.08
X6.74Y-1.7225
X6.79Y-2.975
X6.8225Y-2.08
X6.8384Y-1.7225
X6.915Y-3.6825
X6.915Y-3.7825
X6.915Y-3.8825
X6.915Y-3.9825
X6.9675Y-4.13
X7.0425Y-3.5125
X7.045Y-3.7525
X7.045Y-3.9
X7.4425Y-3.5125
X7.445Y-3.7525
X7.445Y-3.9
X7.4725Y-1.8241
X7.4725Y-1.9225
X7.6875Y-1.8266
X7.6875Y-1.925
X7.9025Y-1.9075
X7.9025Y-2.1925
X7.9888Y-2.7875
X8.0325Y-2.3575
X8.0675Y-2.7875
X8.1925Y-2.5125
X8.27Y-3.9375
X8.27Y-4.0359
X8.275Y-3.4975
X8.275Y-3.7975
X8.3025Y-1.6525
X8.3025Y-1.7509
X8.3025Y-1.9075
X8.3025Y-2.1925
X8.36Y-2.7438
X8.36Y-2.8225
X8.365Y-2.9625
X8.365Y-3.3625
X8.375Y-3.4975
X8.375Y-3.7975
X8.4225Y-1.8975
X8.4225Y-2.1975
X8.4325Y-2.3575
X8.475Y-3.4975
X8.475Y-3.7975
X8.475Y-3.9525
X8.475Y-4.1025
X8.475Y-4.1812
X8.575Y-3.4975
X8.575Y-3.7975
X8.5925Y-2.5125
X8.875Y-3.9525
T3
X3.055Y-2.07
X3.2125Y-2.07
X3.37Y-2.07
X5.8625Y-2.065
X6.02Y-2.065
X6.1775Y-2.065
X7.66Y-3.6875
X7.8175Y-3.6875
X7.975Y-3.6875
T4
X1.655Y-2.3625
X1.655Y-2.4625
X1.655Y-2.5625
X7.085Y-1.9025
X7.185Y-1.9025
X7.4375Y-1.6475
X7.5375Y-1.6475
X7.6375Y-1.6475
X7.7375Y-1.6475
T5
X4.1825Y-1.88
X4.6825Y-1.88
X7.475Y-2.0975
X7.575Y-2.0975
X7.675Y-2.0975
T6
X2.9763Y-1.9027
X2.9763Y-2.1389
X3.4487Y-1.9027
X3.4487Y-2.1389
X5.7838Y-1.8977
X5.7838Y-2.1339
X6.2562Y-1.8977
X6.2562Y-2.1339
X7.5813Y-3.6186
X7.5813Y-3.8548
X8.0537Y-3.6186
X8.0537Y-3.8548
T7
X2.615Y-1.635
X2.615Y-1.8319
X2.615Y-2.0287
X2.83Y-3.4375
X3.0269Y-3.4375
X3.2237Y-3.4375
X5.125Y-3.47
X5.3219Y-3.47
X5.5187Y-3.47
X5.9175Y-3.46
X6.1144Y-3.46
X6.3112Y-3.46
T0
M30
