%TF.GenerationSoftware,KiCad,Pcbnew,(5.1.10)-1*%
%TF.CreationDate,2023-01-23T00:02:35+05:00*%
%TF.ProjectId,LCS_Lab_Project,4c43535f-4c61-4625-9f50-726f6a656374,rev?*%
%TF.SameCoordinates,Original*%
%TF.FileFunction,Copper,L2,Bot*%
%TF.FilePolarity,Positive*%
%FSLAX46Y46*%
G04 Gerber Fmt 4.6, Leading zero omitted, Abs format (unit mm)*
G04 Created by KiCad (PCBNEW (5.1.10)-1) date 2023-01-23 00:02:35*
%MOMM*%
%LPD*%
G01*
G04 APERTURE LIST*
%TA.AperFunction,NonConductor*%
%ADD10C,1.000000*%
%TD*%
%TA.AperFunction,ComponentPad*%
%ADD11C,1.600000*%
%TD*%
%TA.AperFunction,ComponentPad*%
%ADD12R,1.600000X1.600000*%
%TD*%
%TA.AperFunction,ComponentPad*%
%ADD13R,2.200000X2.200000*%
%TD*%
%TA.AperFunction,ComponentPad*%
%ADD14O,2.200000X2.200000*%
%TD*%
%TA.AperFunction,ComponentPad*%
%ADD15O,1.600000X1.600000*%
%TD*%
%TA.AperFunction,ComponentPad*%
%ADD16R,1.700000X1.700000*%
%TD*%
%TA.AperFunction,ComponentPad*%
%ADD17O,1.700000X1.700000*%
%TD*%
%TA.AperFunction,ComponentPad*%
%ADD18O,1.500000X1.050000*%
%TD*%
%TA.AperFunction,ComponentPad*%
%ADD19R,1.500000X1.050000*%
%TD*%
%TA.AperFunction,ComponentPad*%
%ADD20O,1.050000X1.500000*%
%TD*%
%TA.AperFunction,ComponentPad*%
%ADD21R,1.050000X1.500000*%
%TD*%
%TA.AperFunction,ComponentPad*%
%ADD22C,2.340000*%
%TD*%
%TA.AperFunction,ComponentPad*%
%ADD23C,1.700000*%
%TD*%
%TA.AperFunction,ComponentPad*%
%ADD24C,2.000000*%
%TD*%
%TA.AperFunction,ComponentPad*%
%ADD25O,2.400000X1.600000*%
%TD*%
%TA.AperFunction,ComponentPad*%
%ADD26R,2.400000X1.600000*%
%TD*%
%TA.AperFunction,ComponentPad*%
%ADD27R,1.905000X2.000000*%
%TD*%
%TA.AperFunction,ComponentPad*%
%ADD28O,1.905000X2.000000*%
%TD*%
%TA.AperFunction,ComponentPad*%
%ADD29R,1.600000X2.400000*%
%TD*%
%TA.AperFunction,ComponentPad*%
%ADD30O,1.600000X2.400000*%
%TD*%
%TA.AperFunction,Conductor*%
%ADD31C,1.000000*%
%TD*%
G04 APERTURE END LIST*
D10*
X36292400Y-112801400D02*
X231292400Y-112801400D01*
X36292400Y-27801400D02*
X36292400Y-112801400D01*
X36292400Y-27801400D02*
X231292400Y-27801400D01*
X231292400Y-27801400D02*
X231292400Y-112801400D01*
D11*
%TO.P,C1,1*%
%TO.N,Net-(C1-Pad1)*%
X138239500Y-41656000D03*
%TO.P,C1,2*%
%TO.N,Net-(C1-Pad2)*%
X140739500Y-41656000D03*
%TD*%
D12*
%TO.P,C2,1*%
%TO.N,+12V*%
X171196000Y-43751500D03*
D11*
%TO.P,C2,2*%
%TO.N,GND*%
X173696000Y-43751500D03*
%TD*%
%TO.P,C3,2*%
%TO.N,-12V*%
X170791500Y-52832000D03*
D12*
%TO.P,C3,1*%
%TO.N,GND*%
X173291500Y-52832000D03*
%TD*%
D11*
%TO.P,C4,1*%
%TO.N,+12V*%
X195262500Y-48895000D03*
%TO.P,C4,2*%
%TO.N,GND*%
X195262500Y-46395000D03*
%TD*%
%TO.P,C5,2*%
%TO.N,GND*%
X189801500Y-46331500D03*
%TO.P,C5,1*%
%TO.N,Net-(C5-Pad1)*%
X189801500Y-48831500D03*
%TD*%
D12*
%TO.P,C6,1*%
%TO.N,D_out*%
X210883500Y-41973500D03*
D11*
%TO.P,C6,2*%
%TO.N,Net-(C6-Pad2)*%
X210883500Y-44473500D03*
%TD*%
D12*
%TO.P,C7,1*%
%TO.N,Net-(C7-Pad1)*%
X204914500Y-70802500D03*
D11*
%TO.P,C7,2*%
%TO.N,GND*%
X202914500Y-70802500D03*
%TD*%
%TO.P,C8,2*%
%TO.N,GND*%
X210058000Y-102512500D03*
D12*
%TO.P,C8,1*%
%TO.N,Net-(C8-Pad1)*%
X210058000Y-100012500D03*
%TD*%
D11*
%TO.P,C9,2*%
%TO.N,GND*%
X215265000Y-106203500D03*
D12*
%TO.P,C9,1*%
%TO.N,Net-(C9-Pad1)*%
X215265000Y-104203500D03*
%TD*%
%TO.P,C10,1*%
%TO.N,F_to_V*%
X212344000Y-71691500D03*
D11*
%TO.P,C10,2*%
%TO.N,GND*%
X212344000Y-69691500D03*
%TD*%
%TO.P,C11,2*%
%TO.N,Net-(C11-Pad2)*%
X121007500Y-96075500D03*
D12*
%TO.P,C11,1*%
%TO.N,Net-(C11-Pad1)*%
X123507500Y-96075500D03*
%TD*%
%TO.P,C12,1*%
%TO.N,Integral*%
X114744500Y-96202500D03*
D11*
%TO.P,C12,2*%
%TO.N,Net-(C11-Pad2)*%
X117244500Y-96202500D03*
%TD*%
D12*
%TO.P,C13,1*%
%TO.N,Net-(C13-Pad1)*%
X93789500Y-74803000D03*
D11*
%TO.P,C13,2*%
%TO.N,Net-(C13-Pad2)*%
X91289500Y-74803000D03*
%TD*%
%TO.P,C14,2*%
%TO.N,Net-(C13-Pad2)*%
X86447000Y-75057000D03*
D12*
%TO.P,C14,1*%
%TO.N,Net-(C14-Pad1)*%
X83947000Y-75057000D03*
%TD*%
D13*
%TO.P,D1,1*%
%TO.N,V_to_F*%
X106235500Y-47752000D03*
D14*
%TO.P,D1,2*%
%TO.N,Net-(D1-Pad2)*%
X118935500Y-47752000D03*
%TD*%
D12*
%TO.P,D2,1*%
%TO.N,Net-(D2-Pad1)*%
X213931500Y-55816500D03*
D15*
%TO.P,D2,2*%
%TO.N,Net-(C6-Pad2)*%
X213931500Y-48196500D03*
%TD*%
D16*
%TO.P,J1,1*%
%TO.N,+12V*%
X42037000Y-60007500D03*
D17*
%TO.P,J1,2*%
%TO.N,-12V*%
X42037000Y-62547500D03*
%TO.P,J1,3*%
%TO.N,GND*%
X42037000Y-65087500D03*
%TD*%
D16*
%TO.P,J2,1*%
%TO.N,BridgeOut*%
X179959000Y-48323500D03*
D17*
%TO.P,J2,2*%
%TO.N,GND*%
X182499000Y-48323500D03*
%TD*%
D16*
%TO.P,J3,1*%
%TO.N,Net-(C5-Pad1)*%
X188912500Y-41846500D03*
D17*
%TO.P,J3,2*%
%TO.N,GND*%
X191452500Y-41846500D03*
%TO.P,J3,3*%
%TO.N,D_out*%
X193992500Y-41846500D03*
%TO.P,J3,4*%
%TO.N,A_out*%
X196532500Y-41846500D03*
%TD*%
D18*
%TO.P,Q1,2*%
%TO.N,BridgeIn*%
X163576000Y-45021500D03*
%TO.P,Q1,3*%
%TO.N,BridgeOut*%
X163576000Y-46291500D03*
D19*
%TO.P,Q1,1*%
%TO.N,+12V*%
X163576000Y-43751500D03*
%TD*%
%TO.P,Q2,1*%
%TO.N,-12V*%
X164338000Y-52641500D03*
D18*
%TO.P,Q2,3*%
%TO.N,BridgeOut*%
X164338000Y-50101500D03*
%TO.P,Q2,2*%
%TO.N,BridgeIn*%
X164338000Y-51371500D03*
%TD*%
D20*
%TO.P,Q3,2*%
%TO.N,Net-(Q3-Pad2)*%
X203771500Y-64325500D03*
%TO.P,Q3,3*%
%TO.N,GND*%
X202501500Y-64325500D03*
D21*
%TO.P,Q3,1*%
%TO.N,Net-(C7-Pad1)*%
X205041500Y-64325500D03*
%TD*%
D11*
%TO.P,R1,1*%
%TO.N,Net-(R1-Pad1)*%
X93853000Y-38798500D03*
D15*
%TO.P,R1,2*%
%TO.N,V_to_F*%
X104013000Y-38798500D03*
%TD*%
%TO.P,R2,2*%
%TO.N,Net-(R1-Pad1)*%
X91313000Y-47942500D03*
D11*
%TO.P,R2,1*%
%TO.N,Net-(C1-Pad2)*%
X91313000Y-58102500D03*
%TD*%
D15*
%TO.P,R3,2*%
%TO.N,Net-(D1-Pad2)*%
X121983500Y-47752000D03*
D11*
%TO.P,R3,1*%
%TO.N,Net-(C1-Pad1)*%
X132143500Y-47752000D03*
%TD*%
%TO.P,R4,1*%
%TO.N,Net-(C1-Pad1)*%
X132143500Y-41148000D03*
D15*
%TO.P,R4,2*%
%TO.N,Input*%
X121983500Y-41148000D03*
%TD*%
D11*
%TO.P,R5,1*%
%TO.N,GND*%
X200723500Y-48450500D03*
D15*
%TO.P,R5,2*%
%TO.N,Net-(C6-Pad2)*%
X210883500Y-48450500D03*
%TD*%
%TO.P,R6,2*%
%TO.N,Net-(D2-Pad1)*%
X210883500Y-55689500D03*
D11*
%TO.P,R6,1*%
%TO.N,GND*%
X200723500Y-55689500D03*
%TD*%
%TO.P,R7,1*%
%TO.N,Net-(D2-Pad1)*%
X214185500Y-59880500D03*
D15*
%TO.P,R7,2*%
%TO.N,Net-(Q3-Pad2)*%
X204025500Y-59880500D03*
%TD*%
%TO.P,R8,2*%
%TO.N,+12V*%
X218249500Y-63817500D03*
D11*
%TO.P,R8,1*%
%TO.N,Net-(C7-Pad1)*%
X208089500Y-63817500D03*
%TD*%
%TO.P,R9,1*%
%TO.N,Net-(C9-Pad1)*%
X215265000Y-100393500D03*
D15*
%TO.P,R9,2*%
%TO.N,+12V*%
X225425000Y-100393500D03*
%TD*%
%TO.P,R10,2*%
%TO.N,Net-(R10-Pad2)*%
X212471000Y-85407500D03*
D11*
%TO.P,R10,1*%
%TO.N,F_to_V*%
X212471000Y-75247500D03*
%TD*%
D15*
%TO.P,R11,2*%
%TO.N,Output*%
X189103000Y-99060000D03*
D11*
%TO.P,R11,1*%
%TO.N,Net-(R11-Pad1)*%
X178943000Y-99060000D03*
%TD*%
%TO.P,R12,1*%
%TO.N,Net-(R12-Pad1)*%
X178943000Y-95313500D03*
D15*
%TO.P,R12,2*%
%TO.N,SetPoint*%
X189103000Y-95313500D03*
%TD*%
%TO.P,R13,2*%
%TO.N,GND*%
X189039500Y-89217500D03*
D11*
%TO.P,R13,1*%
%TO.N,Net-(R12-Pad1)*%
X178879500Y-89217500D03*
%TD*%
D15*
%TO.P,R14,2*%
%TO.N,Net-(R11-Pad1)*%
X176974500Y-104902000D03*
D11*
%TO.P,R14,1*%
%TO.N,Net-(R14-Pad1)*%
X166814500Y-104902000D03*
%TD*%
%TO.P,R15,1*%
%TO.N,Net-(R14-Pad1)*%
X172466000Y-75565000D03*
D15*
%TO.P,R15,2*%
%TO.N,Net-(R15-Pad2)*%
X162306000Y-75565000D03*
%TD*%
%TO.P,R16,2*%
%TO.N,Propotional*%
X148082000Y-73088500D03*
D11*
%TO.P,R16,1*%
%TO.N,Net-(R16-Pad1)*%
X137922000Y-73088500D03*
%TD*%
%TO.P,R17,1*%
%TO.N,Net-(R14-Pad1)*%
X139954000Y-78168500D03*
D15*
%TO.P,R17,2*%
%TO.N,Net-(R17-Pad2)*%
X129794000Y-78168500D03*
%TD*%
D11*
%TO.P,R18,1*%
%TO.N,Net-(R16-Pad1)*%
X101473000Y-85153500D03*
D15*
%TO.P,R18,2*%
%TO.N,Integral*%
X111633000Y-85153500D03*
%TD*%
D11*
%TO.P,R19,1*%
%TO.N,Net-(C13-Pad1)*%
X97980500Y-74676000D03*
D15*
%TO.P,R19,2*%
%TO.N,Output*%
X97980500Y-84836000D03*
%TD*%
D11*
%TO.P,R20,1*%
%TO.N,Net-(R20-Pad1)*%
X58737500Y-72580500D03*
D15*
%TO.P,R20,2*%
%TO.N,Derivative*%
X68897500Y-72580500D03*
%TD*%
%TO.P,R21,2*%
%TO.N,GND*%
X55499000Y-62992000D03*
D11*
%TO.P,R21,1*%
%TO.N,Net-(R20-Pad1)*%
X55499000Y-73152000D03*
%TD*%
D22*
%TO.P,RV0,1*%
%TO.N,+12V*%
X66421000Y-41529000D03*
%TO.P,RV0,2*%
%TO.N,SetPoint*%
X66421000Y-46529000D03*
%TO.P,RV0,3*%
%TO.N,-12V*%
X66421000Y-51529000D03*
%TD*%
%TO.P,RV1,1*%
%TO.N,Net-(R15-Pad2)*%
X150304500Y-87884000D03*
%TO.P,RV1,2*%
X155304500Y-87884000D03*
%TO.P,RV1,3*%
%TO.N,Propotional*%
X160304500Y-87884000D03*
%TD*%
%TO.P,RV2,3*%
%TO.N,Net-(C11-Pad1)*%
X140175000Y-88138000D03*
%TO.P,RV2,2*%
%TO.N,Net-(R17-Pad2)*%
X135175000Y-88138000D03*
%TO.P,RV2,1*%
X130175000Y-88138000D03*
%TD*%
%TO.P,RV3,3*%
%TO.N,Derivative*%
X81882000Y-87312500D03*
%TO.P,RV3,2*%
%TO.N,Net-(C14-Pad1)*%
X76882000Y-87312500D03*
%TO.P,RV3,1*%
X71882000Y-87312500D03*
%TD*%
D23*
%TO.P,SW1,3*%
%TO.N,PID*%
X77598000Y-52578000D03*
%TO.P,SW1,2*%
%TO.N,Input*%
X81598000Y-52578000D03*
%TO.P,SW1,1*%
%TO.N,SetPoint*%
X85598000Y-52578000D03*
D24*
%TO.P,SW1,*%
%TO.N,*%
X87598000Y-48328000D03*
X75598000Y-48328000D03*
X75598000Y-54328000D03*
X87598000Y-54328000D03*
%TD*%
%TO.P,SW2,*%
%TO.N,*%
X158908500Y-54201000D03*
X146908500Y-54201000D03*
X146908500Y-48201000D03*
X158908500Y-48201000D03*
D23*
%TO.P,SW2,1*%
%TO.N,Input*%
X156908500Y-52451000D03*
%TO.P,SW2,2*%
%TO.N,BridgeIn*%
X152908500Y-52451000D03*
%TO.P,SW2,3*%
%TO.N,V_to_F*%
X148908500Y-52451000D03*
%TD*%
D24*
%TO.P,SW3,*%
%TO.N,*%
X192564000Y-91912500D03*
X204564000Y-91912500D03*
X204564000Y-97912500D03*
X192564000Y-97912500D03*
D23*
%TO.P,SW3,1*%
%TO.N,A_out*%
X194564000Y-93662500D03*
%TO.P,SW3,2*%
%TO.N,Output*%
X198564000Y-93662500D03*
%TO.P,SW3,3*%
%TO.N,F_to_V*%
X202564000Y-93662500D03*
%TD*%
D25*
%TO.P,U1,8*%
%TO.N,Net-(U1-Pad8)*%
X102743000Y-42608500D03*
%TO.P,U1,4*%
%TO.N,-12V*%
X95123000Y-50228500D03*
%TO.P,U1,7*%
%TO.N,+12V*%
X102743000Y-45148500D03*
%TO.P,U1,3*%
%TO.N,Net-(R1-Pad1)*%
X95123000Y-47688500D03*
%TO.P,U1,6*%
%TO.N,V_to_F*%
X102743000Y-47688500D03*
%TO.P,U1,2*%
%TO.N,GND*%
X95123000Y-45148500D03*
%TO.P,U1,5*%
%TO.N,Net-(U1-Pad5)*%
X102743000Y-50228500D03*
D26*
%TO.P,U1,1*%
%TO.N,Net-(U1-Pad1)*%
X95123000Y-42608500D03*
%TD*%
%TO.P,U2,1*%
%TO.N,Net-(U2-Pad1)*%
X135445500Y-45212000D03*
D25*
%TO.P,U2,5*%
%TO.N,Net-(U2-Pad5)*%
X143065500Y-52832000D03*
%TO.P,U2,2*%
%TO.N,Net-(C1-Pad1)*%
X135445500Y-47752000D03*
%TO.P,U2,6*%
%TO.N,Net-(C1-Pad2)*%
X143065500Y-50292000D03*
%TO.P,U2,3*%
%TO.N,GND*%
X135445500Y-50292000D03*
%TO.P,U2,7*%
%TO.N,+12V*%
X143065500Y-47752000D03*
%TO.P,U2,4*%
%TO.N,-12V*%
X135445500Y-52832000D03*
%TO.P,U2,8*%
%TO.N,Net-(U2-Pad8)*%
X143065500Y-45212000D03*
%TD*%
D27*
%TO.P,U3,1*%
%TO.N,+12V*%
X194945000Y-53276500D03*
D28*
%TO.P,U3,2*%
%TO.N,GND*%
X192405000Y-53276500D03*
%TO.P,U3,3*%
%TO.N,Net-(C5-Pad1)*%
X189865000Y-53276500D03*
%TD*%
D29*
%TO.P,U4,1*%
%TO.N,GND*%
X217805000Y-88836500D03*
D30*
%TO.P,U4,5*%
%TO.N,Net-(C8-Pad1)*%
X210185000Y-96456500D03*
%TO.P,U4,2*%
%TO.N,Net-(U4-Pad2)*%
X215265000Y-88836500D03*
%TO.P,U4,6*%
X212725000Y-96456500D03*
%TO.P,U4,3*%
%TO.N,Net-(R10-Pad2)*%
X212725000Y-88836500D03*
%TO.P,U4,7*%
%TO.N,Net-(C9-Pad1)*%
X215265000Y-96456500D03*
%TO.P,U4,4*%
%TO.N,+12V*%
X210185000Y-88836500D03*
%TO.P,U4,8*%
X217805000Y-96456500D03*
%TD*%
D25*
%TO.P,U5,8*%
%TO.N,Net-(U5-Pad8)*%
X168021000Y-101155500D03*
%TO.P,U5,4*%
%TO.N,-12V*%
X175641000Y-93535500D03*
%TO.P,U5,7*%
%TO.N,+12V*%
X168021000Y-98615500D03*
%TO.P,U5,3*%
%TO.N,Net-(R12-Pad1)*%
X175641000Y-96075500D03*
%TO.P,U5,6*%
%TO.N,Net-(R14-Pad1)*%
X168021000Y-96075500D03*
%TO.P,U5,2*%
%TO.N,Net-(R11-Pad1)*%
X175641000Y-98615500D03*
%TO.P,U5,5*%
%TO.N,Net-(U5-Pad5)*%
X168021000Y-93535500D03*
D26*
%TO.P,U5,1*%
%TO.N,Net-(U5-Pad1)*%
X175641000Y-101155500D03*
%TD*%
%TO.P,U6,1*%
%TO.N,Net-(U6-Pad1)*%
X159004000Y-78295500D03*
D25*
%TO.P,U6,5*%
%TO.N,Net-(U6-Pad5)*%
X151384000Y-70675500D03*
%TO.P,U6,2*%
%TO.N,Net-(R15-Pad2)*%
X159004000Y-75755500D03*
%TO.P,U6,6*%
%TO.N,Propotional*%
X151384000Y-73215500D03*
%TO.P,U6,3*%
%TO.N,GND*%
X159004000Y-73215500D03*
%TO.P,U6,7*%
%TO.N,+12V*%
X151384000Y-75755500D03*
%TO.P,U6,4*%
%TO.N,-12V*%
X159004000Y-70675500D03*
%TO.P,U6,8*%
%TO.N,Net-(U6-Pad8)*%
X151384000Y-78295500D03*
%TD*%
%TO.P,U7,8*%
%TO.N,Net-(U7-Pad8)*%
X115062000Y-90360500D03*
%TO.P,U7,4*%
%TO.N,-12V*%
X122682000Y-82740500D03*
%TO.P,U7,7*%
%TO.N,+12V*%
X115062000Y-87820500D03*
%TO.P,U7,3*%
%TO.N,GND*%
X122682000Y-85280500D03*
%TO.P,U7,6*%
%TO.N,Integral*%
X115062000Y-85280500D03*
%TO.P,U7,2*%
%TO.N,Net-(C11-Pad1)*%
X122682000Y-87820500D03*
%TO.P,U7,5*%
%TO.N,Net-(U7-Pad5)*%
X115062000Y-82740500D03*
D26*
%TO.P,U7,1*%
%TO.N,Net-(U7-Pad1)*%
X122682000Y-90360500D03*
%TD*%
%TO.P,U8,1*%
%TO.N,Net-(U8-Pad1)*%
X79692500Y-77597000D03*
D25*
%TO.P,U8,5*%
%TO.N,Net-(U8-Pad5)*%
X72072500Y-69977000D03*
%TO.P,U8,2*%
%TO.N,Net-(C14-Pad1)*%
X79692500Y-75057000D03*
%TO.P,U8,6*%
%TO.N,Derivative*%
X72072500Y-72517000D03*
%TO.P,U8,3*%
%TO.N,GND*%
X79692500Y-72517000D03*
%TO.P,U8,7*%
%TO.N,+12V*%
X72072500Y-75057000D03*
%TO.P,U8,4*%
%TO.N,-12V*%
X79692500Y-69977000D03*
%TO.P,U8,8*%
%TO.N,Net-(U8-Pad8)*%
X72072500Y-77597000D03*
%TD*%
%TO.P,U9,8*%
%TO.N,Net-(U9-Pad8)*%
X43878500Y-78422500D03*
%TO.P,U9,4*%
%TO.N,-12V*%
X51498500Y-70802500D03*
%TO.P,U9,7*%
%TO.N,+12V*%
X43878500Y-75882500D03*
%TO.P,U9,3*%
%TO.N,Net-(R20-Pad1)*%
X51498500Y-73342500D03*
%TO.P,U9,6*%
%TO.N,PID*%
X43878500Y-73342500D03*
%TO.P,U9,2*%
%TO.N,Net-(R16-Pad1)*%
X51498500Y-75882500D03*
%TO.P,U9,5*%
%TO.N,Net-(U9-Pad5)*%
X43878500Y-70802500D03*
D26*
%TO.P,U9,1*%
%TO.N,Net-(U9-Pad1)*%
X51498500Y-78422500D03*
%TD*%
D31*
%TO.N,Net-(C1-Pad1)*%
X132143500Y-47752000D02*
X132143500Y-41148000D01*
X137731500Y-41148000D02*
X138239500Y-41656000D01*
X132143500Y-41148000D02*
X137731500Y-41148000D01*
X135445500Y-47752000D02*
X132143500Y-47752000D01*
%TO.N,Net-(C1-Pad2)*%
X143065500Y-50292000D02*
X142049500Y-50292000D01*
X140739500Y-48982000D02*
X140739500Y-41656000D01*
X142049500Y-50292000D02*
X140739500Y-48982000D01*
X91313000Y-58102500D02*
X136525000Y-58102500D01*
X140739500Y-53888000D02*
X140739500Y-48982000D01*
X136525000Y-58102500D02*
X140739500Y-53888000D01*
%TO.N,+12V*%
X163576000Y-43751500D02*
X171196000Y-43751500D01*
X194945000Y-49212500D02*
X195262500Y-48895000D01*
X194945000Y-53276500D02*
X194945000Y-49212500D01*
X210185000Y-88836500D02*
X210185000Y-90614500D01*
X210185000Y-90614500D02*
X211137500Y-91567000D01*
X211137500Y-91567000D02*
X216471500Y-91567000D01*
X216471500Y-91567000D02*
X217995500Y-93091000D01*
X217995500Y-96266000D02*
X217805000Y-96456500D01*
X217995500Y-93091000D02*
X217995500Y-96266000D01*
X218249500Y-63817500D02*
X220535500Y-66103500D01*
X220535500Y-90551000D02*
X217995500Y-93091000D01*
X220535500Y-66103500D02*
X220535500Y-90551000D01*
X221742000Y-100393500D02*
X217805000Y-96456500D01*
X225425000Y-100393500D02*
X221742000Y-100393500D01*
X201993500Y-53276500D02*
X194945000Y-53276500D01*
X212534500Y-63817500D02*
X201993500Y-53276500D01*
X218249500Y-63817500D02*
X212534500Y-63817500D01*
%TO.N,GND*%
X182499000Y-47121419D02*
X182499000Y-48323500D01*
X179129081Y-43751500D02*
X182499000Y-47121419D01*
X173696000Y-43751500D02*
X179129081Y-43751500D01*
X182499000Y-49525581D02*
X182499000Y-48323500D01*
X179192581Y-52832000D02*
X182499000Y-49525581D01*
X173291500Y-52832000D02*
X179192581Y-52832000D01*
X191452500Y-44680500D02*
X189801500Y-46331500D01*
X191452500Y-41846500D02*
X191452500Y-44680500D01*
X195199000Y-46331500D02*
X195262500Y-46395000D01*
X182499000Y-53213000D02*
X182499000Y-48323500D01*
X190627000Y-57023000D02*
X186309000Y-57023000D01*
X192405000Y-55245000D02*
X190627000Y-57023000D01*
X192405000Y-53276500D02*
X192405000Y-55245000D01*
X200723500Y-48450500D02*
X198247000Y-45974000D01*
X195683500Y-45974000D02*
X195262500Y-46395000D01*
X198247000Y-45974000D02*
X195683500Y-45974000D01*
X202501500Y-64325500D02*
X202501500Y-64008000D01*
X200723500Y-62230000D02*
X200723500Y-55689500D01*
X202501500Y-64008000D02*
X200723500Y-62230000D01*
X202914500Y-70802500D02*
X202914500Y-69056500D01*
X202914500Y-69056500D02*
X200914000Y-67056000D01*
X200914000Y-65913000D02*
X202501500Y-64325500D01*
X200914000Y-67056000D02*
X200914000Y-65913000D01*
X212344000Y-69691500D02*
X209835500Y-69691500D01*
X209835500Y-69691500D02*
X206057500Y-73469500D01*
X206057500Y-73469500D02*
X202946000Y-73469500D01*
X202914500Y-73438000D02*
X202914500Y-70802500D01*
X202946000Y-73469500D02*
X202914500Y-73438000D01*
X213475370Y-69691500D02*
X212344000Y-69691500D01*
X217805000Y-74021130D02*
X213475370Y-69691500D01*
X217805000Y-88836500D02*
X217805000Y-74021130D01*
X215265000Y-106203500D02*
X211931500Y-106203500D01*
X210058000Y-104330000D02*
X210058000Y-102512500D01*
X211931500Y-106203500D02*
X210058000Y-104330000D01*
X189039500Y-89217500D02*
X189039500Y-84677500D01*
X200596500Y-88455500D02*
X193532250Y-81391250D01*
X200596500Y-98615500D02*
X200596500Y-88455500D01*
X204493500Y-102512500D02*
X200596500Y-98615500D01*
X193532250Y-81391250D02*
X192325750Y-81391250D01*
X210058000Y-102512500D02*
X204493500Y-102512500D01*
X189039500Y-84677500D02*
X192325750Y-81391250D01*
X95123000Y-45148500D02*
X97980500Y-45148500D01*
X97980500Y-45148500D02*
X100203000Y-47371000D01*
X100203000Y-47371000D02*
X100203000Y-51879500D01*
X100203000Y-51879500D02*
X100774500Y-52451000D01*
X100774500Y-52451000D02*
X129984500Y-52451000D01*
X129984500Y-52451000D02*
X132270500Y-50165000D01*
X135318500Y-50165000D02*
X135445500Y-50292000D01*
X132270500Y-50165000D02*
X135318500Y-50165000D01*
X192405000Y-46545500D02*
X192191000Y-46331500D01*
X192405000Y-53276500D02*
X192405000Y-46545500D01*
X192191000Y-46331500D02*
X195199000Y-46331500D01*
X189801500Y-46331500D02*
X192191000Y-46331500D01*
X191960500Y-55689500D02*
X190627000Y-57023000D01*
X200723500Y-55689500D02*
X191960500Y-55689500D01*
X192833750Y-80883250D02*
X202914500Y-70802500D01*
X192325750Y-81391250D02*
X192833750Y-80883250D01*
X122682000Y-85280500D02*
X120650000Y-85280500D01*
X120650000Y-85280500D02*
X118935500Y-83566000D01*
X118935500Y-83566000D02*
X118935500Y-78613000D01*
X118935500Y-78613000D02*
X118173500Y-77851000D01*
X118173500Y-77851000D02*
X109410500Y-77851000D01*
X109410500Y-77851000D02*
X106489500Y-80772000D01*
X106489500Y-80772000D02*
X106489500Y-87058500D01*
X106489500Y-87058500D02*
X93281500Y-100266500D01*
X93281500Y-100266500D02*
X62611000Y-100266500D01*
X62611000Y-100266500D02*
X47371000Y-85026500D01*
X47371000Y-76962000D02*
X48450500Y-75882500D01*
X48450500Y-75882500D02*
X48450500Y-62928500D01*
X48514000Y-62992000D02*
X55499000Y-62992000D01*
X48450500Y-62928500D02*
X48514000Y-62992000D01*
X79692500Y-72517000D02*
X76136500Y-72517000D01*
X76136500Y-72517000D02*
X75501500Y-71882000D01*
X75374500Y-62992000D02*
X55499000Y-62992000D01*
X75501500Y-62865000D02*
X75374500Y-62992000D01*
X41656000Y-84709000D02*
X47371000Y-84709000D01*
X40132000Y-83185000D02*
X41656000Y-84709000D01*
X47371000Y-84709000D02*
X47371000Y-76962000D01*
X47371000Y-85026500D02*
X47371000Y-84709000D01*
X75501500Y-63373000D02*
X75501500Y-62865000D01*
X75501500Y-71882000D02*
X75501500Y-63373000D01*
X176720500Y-56007000D02*
X185293000Y-56007000D01*
X170116500Y-62611000D02*
X176720500Y-56007000D01*
X91122500Y-54673500D02*
X87566500Y-58229500D01*
X95948500Y-54673500D02*
X91122500Y-54673500D01*
X98742500Y-51879500D02*
X95948500Y-54673500D01*
X185293000Y-56007000D02*
X182499000Y-53213000D01*
X87566500Y-58229500D02*
X87566500Y-62611000D01*
X100203000Y-51879500D02*
X98742500Y-51879500D01*
X186309000Y-57023000D02*
X185293000Y-56007000D01*
X169481500Y-62611000D02*
X170116500Y-62611000D01*
X87566500Y-62611000D02*
X169481500Y-62611000D01*
X159004000Y-73215500D02*
X160782000Y-73215500D01*
X169481500Y-64516000D02*
X169481500Y-62611000D01*
X160782000Y-73215500D02*
X169481500Y-64516000D01*
X41791002Y-65087500D02*
X42037000Y-65087500D01*
X40132000Y-66746502D02*
X41791002Y-65087500D01*
X40132000Y-83185000D02*
X40132000Y-66746502D01*
X44640500Y-62484000D02*
X42037000Y-65087500D01*
X44640500Y-53657500D02*
X44640500Y-62484000D01*
X65595500Y-32702500D02*
X44640500Y-53657500D01*
X168080081Y-32702500D02*
X65595500Y-32702500D01*
X179129081Y-43751500D02*
X168080081Y-32702500D01*
%TO.N,-12V*%
X170601000Y-52641500D02*
X170791500Y-52832000D01*
X164338000Y-52641500D02*
X170601000Y-52641500D01*
%TO.N,Net-(C5-Pad1)*%
X189801500Y-53213000D02*
X189865000Y-53276500D01*
X189801500Y-48831500D02*
X189801500Y-53213000D01*
X189801500Y-48831500D02*
X187198000Y-48831500D01*
X187198000Y-48831500D02*
X186055000Y-47688500D01*
X186055000Y-47688500D02*
X186055000Y-43624500D01*
X187833000Y-41846500D02*
X188912500Y-41846500D01*
X186055000Y-43624500D02*
X187833000Y-41846500D01*
%TO.N,D_out*%
X193992500Y-41846500D02*
X196405500Y-44259500D01*
X196405500Y-44259500D02*
X205295500Y-44259500D01*
X207581500Y-41973500D02*
X210883500Y-41973500D01*
X205295500Y-44259500D02*
X207581500Y-41973500D01*
%TO.N,Net-(C6-Pad2)*%
X210883500Y-44473500D02*
X210883500Y-48450500D01*
X213677500Y-48450500D02*
X213931500Y-48196500D01*
X210883500Y-48450500D02*
X213677500Y-48450500D01*
%TO.N,Net-(C7-Pad1)*%
X204914500Y-70802500D02*
X204914500Y-68834000D01*
X208089500Y-65659000D02*
X208089500Y-63817500D01*
X204914500Y-68834000D02*
X208089500Y-65659000D01*
X207581500Y-64325500D02*
X208089500Y-63817500D01*
X205041500Y-64325500D02*
X207581500Y-64325500D01*
%TO.N,Net-(C8-Pad1)*%
X210185000Y-99885500D02*
X210058000Y-100012500D01*
X210185000Y-96456500D02*
X210185000Y-99885500D01*
%TO.N,Net-(C9-Pad1)*%
X215265000Y-96456500D02*
X215265000Y-100393500D01*
X215265000Y-104203500D02*
X215265000Y-100393500D01*
%TO.N,F_to_V*%
X212344000Y-75120500D02*
X212471000Y-75247500D01*
X212344000Y-71691500D02*
X212344000Y-75120500D01*
X202564000Y-93662500D02*
X202564000Y-82297000D01*
X209613500Y-75247500D02*
X212471000Y-75247500D01*
X202564000Y-82297000D02*
X209613500Y-75247500D01*
%TO.N,Net-(C11-Pad2)*%
X117371500Y-96075500D02*
X117244500Y-96202500D01*
X121007500Y-96075500D02*
X117371500Y-96075500D01*
%TO.N,Net-(C11-Pad1)*%
X122682000Y-87820500D02*
X126428500Y-87820500D01*
X126428500Y-87820500D02*
X127444500Y-88836500D01*
X127444500Y-88836500D02*
X127444500Y-93408500D01*
X127444500Y-93408500D02*
X128397000Y-94361000D01*
X133952000Y-94361000D02*
X140175000Y-88138000D01*
X128397000Y-94361000D02*
X133952000Y-94361000D01*
X126682500Y-96075500D02*
X128397000Y-94361000D01*
X123507500Y-96075500D02*
X126682500Y-96075500D01*
%TO.N,Integral*%
X114744500Y-96202500D02*
X114363500Y-96202500D01*
X111633000Y-93472000D02*
X111633000Y-85153500D01*
X114363500Y-96202500D02*
X111633000Y-93472000D01*
X111760000Y-85280500D02*
X111633000Y-85153500D01*
X115062000Y-85280500D02*
X111760000Y-85280500D01*
%TO.N,Net-(C13-Pad1)*%
X93916500Y-74676000D02*
X93789500Y-74803000D01*
X97980500Y-74676000D02*
X93916500Y-74676000D01*
%TO.N,Net-(C13-Pad2)*%
X86701000Y-74803000D02*
X86447000Y-75057000D01*
X91289500Y-74803000D02*
X86701000Y-74803000D01*
%TO.N,Net-(C14-Pad1)*%
X83947000Y-75057000D02*
X79692500Y-75057000D01*
X71882000Y-87312500D02*
X76882000Y-87312500D01*
X79692500Y-75057000D02*
X78232000Y-75057000D01*
X78232000Y-75057000D02*
X76454000Y-76835000D01*
X76454000Y-86884500D02*
X76882000Y-87312500D01*
X76454000Y-76835000D02*
X76454000Y-86884500D01*
%TO.N,V_to_F*%
X106172000Y-47688500D02*
X106235500Y-47752000D01*
X102743000Y-47688500D02*
X106172000Y-47688500D01*
X104013000Y-38798500D02*
X106235500Y-41021000D01*
X148908500Y-52451000D02*
X148908500Y-42482500D01*
X148908500Y-42482500D02*
X145669000Y-39243000D01*
X145669000Y-39243000D02*
X128778000Y-39243000D01*
X124079000Y-43942000D02*
X106235500Y-43942000D01*
X128778000Y-39243000D02*
X124079000Y-43942000D01*
X106235500Y-43942000D02*
X106235500Y-47752000D01*
X106235500Y-41021000D02*
X106235500Y-43942000D01*
%TO.N,Net-(D1-Pad2)*%
X118935500Y-47752000D02*
X121983500Y-47752000D01*
%TO.N,Net-(D2-Pad1)*%
X211010500Y-55816500D02*
X210883500Y-55689500D01*
X213931500Y-55816500D02*
X211010500Y-55816500D01*
X213931500Y-59626500D02*
X214185500Y-59880500D01*
X213931500Y-55816500D02*
X213931500Y-59626500D01*
%TO.N,BridgeOut*%
X164338000Y-47053500D02*
X163576000Y-46291500D01*
X179959000Y-48323500D02*
X164655500Y-48323500D01*
X164338000Y-48006000D02*
X164338000Y-47053500D01*
X164655500Y-48323500D02*
X164338000Y-48006000D01*
X164338000Y-50101500D02*
X164338000Y-48006000D01*
%TO.N,A_out*%
X196532500Y-41846500D02*
X199453500Y-38925500D01*
X199453500Y-38925500D02*
X216979500Y-38925500D01*
X216979500Y-38925500D02*
X217233500Y-39179500D01*
X217233500Y-39179500D02*
X217233500Y-59372500D01*
X223329500Y-65468500D02*
X223329500Y-92964000D01*
X223329500Y-92964000D02*
X228028500Y-97663000D01*
X228028500Y-97663000D02*
X228028500Y-103695500D01*
X228028500Y-103695500D02*
X222631000Y-109093000D01*
X222631000Y-109093000D02*
X201739500Y-109093000D01*
X194564000Y-101917500D02*
X194564000Y-93662500D01*
X201739500Y-109093000D02*
X194564000Y-101917500D01*
X217233500Y-59372500D02*
X223329500Y-65468500D01*
%TO.N,Input*%
X121983500Y-41148000D02*
X109537500Y-41148000D01*
X82105500Y-52070500D02*
X81598000Y-52578000D01*
X156908500Y-52451000D02*
X156908500Y-47879000D01*
X156908500Y-47879000D02*
X146621500Y-37592000D01*
X125539500Y-37592000D02*
X121983500Y-41148000D01*
X146621500Y-37592000D02*
X125539500Y-37592000D01*
X109537500Y-41148000D02*
X109537500Y-40640000D01*
X109537500Y-40640000D02*
X104013000Y-35115500D01*
X104013000Y-35115500D02*
X84836000Y-35115500D01*
X81598000Y-38353500D02*
X81598000Y-52578000D01*
X84836000Y-35115500D02*
X81598000Y-38353500D01*
%TO.N,SetPoint*%
X67611000Y-45339000D02*
X66421000Y-46529000D01*
X67611000Y-45339000D02*
X71564500Y-45339000D01*
X71564500Y-45339000D02*
X73342500Y-47117000D01*
X73342500Y-47117000D02*
X73342500Y-55880000D01*
X73342500Y-55880000D02*
X73850500Y-56388000D01*
X85598000Y-55880000D02*
X85598000Y-52578000D01*
X85090000Y-56388000D02*
X85598000Y-55880000D01*
X83058000Y-56388000D02*
X85090000Y-56388000D01*
X73850500Y-56388000D02*
X83058000Y-56388000D01*
X186563000Y-95313500D02*
X189103000Y-95313500D01*
X183324500Y-80962500D02*
X183324500Y-92075000D01*
X175768000Y-73406000D02*
X183324500Y-80962500D01*
X145605500Y-76962000D02*
X146621500Y-77978000D01*
X83058000Y-56388000D02*
X83058000Y-63309500D01*
X86614000Y-66865500D02*
X142367000Y-66865500D01*
X142367000Y-66865500D02*
X142367000Y-67500500D01*
X83058000Y-63309500D02*
X86614000Y-66865500D01*
X142367000Y-67500500D02*
X145605500Y-70739000D01*
X169862500Y-73406000D02*
X175768000Y-73406000D01*
X145605500Y-70739000D02*
X145605500Y-76962000D01*
X152336500Y-94043500D02*
X163639500Y-94043500D01*
X146621500Y-88328500D02*
X152336500Y-94043500D01*
X183324500Y-92075000D02*
X186563000Y-95313500D01*
X163639500Y-94043500D02*
X167830500Y-89852500D01*
X146621500Y-77978000D02*
X146621500Y-88328500D01*
X167830500Y-89852500D02*
X167005000Y-89027000D01*
X167005000Y-76263500D02*
X169862500Y-73406000D01*
X167005000Y-89027000D02*
X167005000Y-76263500D01*
%TO.N,Propotional*%
X151257000Y-73088500D02*
X151384000Y-73215500D01*
X148082000Y-73088500D02*
X151257000Y-73088500D01*
X151447500Y-73152000D02*
X151384000Y-73215500D01*
X153987500Y-73152000D02*
X151447500Y-73152000D01*
X153987500Y-84518500D02*
X153987500Y-73152000D01*
X156210000Y-84518500D02*
X153987500Y-84518500D01*
X157861000Y-86169500D02*
X156210000Y-84518500D01*
X157924500Y-87884000D02*
X157861000Y-87820500D01*
X157861000Y-87820500D02*
X157861000Y-86169500D01*
X160304500Y-87884000D02*
X157924500Y-87884000D01*
%TO.N,Derivative*%
X68961000Y-72517000D02*
X68897500Y-72580500D01*
X72072500Y-72517000D02*
X68961000Y-72517000D01*
X81882000Y-87312500D02*
X77627500Y-91567000D01*
X77627500Y-91567000D02*
X71945500Y-91567000D01*
X71945500Y-91567000D02*
X67818000Y-87439500D01*
X67818000Y-73660000D02*
X68897500Y-72580500D01*
X67818000Y-87439500D02*
X67818000Y-73660000D01*
%TO.N,PID*%
X77598000Y-52578000D02*
X77598000Y-43879500D01*
X60198000Y-43561000D02*
X46418500Y-57340500D01*
X46418500Y-57340500D02*
X46418500Y-73215500D01*
X44005500Y-73215500D02*
X43878500Y-73342500D01*
X46418500Y-73215500D02*
X44005500Y-73215500D01*
X60516500Y-43879500D02*
X60198000Y-43561000D01*
X77598000Y-43879500D02*
X60516500Y-43879500D01*
%TO.N,BridgeIn*%
X161671000Y-45021500D02*
X163576000Y-45021500D01*
X161544000Y-44894500D02*
X161671000Y-45021500D01*
X160782000Y-56896000D02*
X161544000Y-56134000D01*
X156019500Y-56896000D02*
X160782000Y-56896000D01*
X152908500Y-53785000D02*
X156019500Y-56896000D01*
X152908500Y-52451000D02*
X152908500Y-53785000D01*
X164338000Y-51371500D02*
X161544000Y-51371500D01*
X161544000Y-51371500D02*
X161544000Y-44894500D01*
X161544000Y-56134000D02*
X161544000Y-51371500D01*
%TO.N,Output*%
X198564000Y-93662500D02*
X198564000Y-92455500D01*
X198564000Y-92455500D02*
X195516500Y-89408000D01*
X191069002Y-89408000D02*
X189357000Y-91120002D01*
X195516500Y-89408000D02*
X191069002Y-89408000D01*
X189357000Y-91120002D02*
X189357000Y-92583000D01*
X189357000Y-92583000D02*
X191833500Y-95059500D01*
X191833500Y-95059500D02*
X191833500Y-95123000D01*
X189103000Y-97853500D02*
X189103000Y-99060000D01*
X191833500Y-95123000D02*
X189103000Y-97853500D01*
X97980500Y-77660500D02*
X97980500Y-84836000D01*
X105600500Y-70040500D02*
X97980500Y-77660500D01*
X140017500Y-70040500D02*
X105600500Y-70040500D01*
X160718500Y-109728000D02*
X160718500Y-109283500D01*
X143065500Y-73088500D02*
X140017500Y-70040500D01*
X160718500Y-109283500D02*
X143065500Y-91630500D01*
X176085500Y-109728000D02*
X160718500Y-109728000D01*
X186753500Y-99060000D02*
X176085500Y-109728000D01*
X189103000Y-99060000D02*
X186753500Y-99060000D01*
X143065500Y-91630500D02*
X143065500Y-83566000D01*
X143065500Y-83566000D02*
X141732000Y-82232500D01*
X141732000Y-82232500D02*
X138811000Y-82232500D01*
X138811000Y-82232500D02*
X136461500Y-79883000D01*
X136461500Y-79883000D02*
X136461500Y-76454000D01*
X136461500Y-76454000D02*
X137033000Y-76454000D01*
X137033000Y-76454000D02*
X138493500Y-74993500D01*
X141160500Y-74993500D02*
X143065500Y-73088500D01*
X138493500Y-74993500D02*
X141160500Y-74993500D01*
%TO.N,Net-(Q3-Pad2)*%
X203771500Y-60134500D02*
X204025500Y-59880500D01*
X203771500Y-64325500D02*
X203771500Y-60134500D01*
%TO.N,Net-(R1-Pad1)*%
X94869000Y-47942500D02*
X95123000Y-47688500D01*
X91313000Y-47942500D02*
X94869000Y-47942500D01*
X91313000Y-41338500D02*
X91313000Y-47942500D01*
X93853000Y-38798500D02*
X91313000Y-41338500D01*
%TO.N,Net-(R10-Pad2)*%
X212471000Y-88582500D02*
X212725000Y-88836500D01*
X212471000Y-85407500D02*
X212471000Y-88582500D01*
%TO.N,Net-(R11-Pad1)*%
X178943000Y-102933500D02*
X176974500Y-104902000D01*
X178943000Y-99060000D02*
X178943000Y-102933500D01*
X178498500Y-98615500D02*
X178943000Y-99060000D01*
X175641000Y-98615500D02*
X178498500Y-98615500D01*
%TO.N,Net-(R12-Pad1)*%
X178943000Y-89281000D02*
X178879500Y-89217500D01*
X178943000Y-95313500D02*
X178943000Y-89281000D01*
X178181000Y-96075500D02*
X178943000Y-95313500D01*
X175641000Y-96075500D02*
X178181000Y-96075500D01*
%TO.N,Net-(R14-Pad1)*%
X166814500Y-104902000D02*
X164782500Y-102870000D01*
X167576500Y-96520000D02*
X168021000Y-96075500D01*
X164782500Y-96520000D02*
X167576500Y-96520000D01*
X168021000Y-96075500D02*
X169735500Y-96075500D01*
X169735500Y-96075500D02*
X170370500Y-95440500D01*
X170370500Y-77660500D02*
X172466000Y-75565000D01*
X170370500Y-95440500D02*
X170370500Y-77660500D01*
X139954000Y-78168500D02*
X142049500Y-78168500D01*
X155257500Y-98679000D02*
X164782500Y-98679000D01*
X164782500Y-98679000D02*
X164782500Y-96520000D01*
X164782500Y-102870000D02*
X164782500Y-98679000D01*
X142049500Y-78168500D02*
X142049500Y-78803500D01*
X142049500Y-78803500D02*
X144843500Y-81597500D01*
X144843500Y-81597500D02*
X144843500Y-89979500D01*
X153543000Y-98679000D02*
X155257500Y-98679000D01*
X144843500Y-89979500D02*
X153543000Y-98679000D01*
%TO.N,Net-(R15-Pad2)*%
X159194500Y-75565000D02*
X159004000Y-75755500D01*
X162306000Y-75565000D02*
X159194500Y-75565000D01*
X150304500Y-87884000D02*
X156019500Y-87884000D01*
X162306000Y-75565000D02*
X164084000Y-77343000D01*
X164084000Y-77343000D02*
X164084000Y-89916000D01*
X164084000Y-89916000D02*
X162687000Y-91313000D01*
X162687000Y-91313000D02*
X155194000Y-91313000D01*
X155304500Y-91202500D02*
X155304500Y-87884000D01*
X155194000Y-91313000D02*
X155304500Y-91202500D01*
%TO.N,Net-(R16-Pad1)*%
X51498500Y-75882500D02*
X53911500Y-75882500D01*
X53911500Y-75882500D02*
X72517000Y-94488000D01*
X92138500Y-94488000D02*
X101473000Y-85153500D01*
X72517000Y-94488000D02*
X92138500Y-94488000D01*
X137922000Y-73088500D02*
X107569000Y-73088500D01*
X101473000Y-79184500D02*
X101473000Y-85153500D01*
X107569000Y-73088500D02*
X101473000Y-79184500D01*
%TO.N,Net-(R17-Pad2)*%
X129794000Y-87757000D02*
X130175000Y-88138000D01*
X129794000Y-78168500D02*
X129794000Y-87757000D01*
X130175000Y-88138000D02*
X135175000Y-88138000D01*
%TO.N,Net-(R20-Pad1)*%
X56070500Y-72580500D02*
X55499000Y-73152000D01*
X58737500Y-72580500D02*
X56070500Y-72580500D01*
X55308500Y-73342500D02*
X55499000Y-73152000D01*
X51498500Y-73342500D02*
X55308500Y-73342500D01*
%TO.N,Net-(U4-Pad2)*%
X211455000Y-83058000D02*
X214947500Y-83058000D01*
X211328000Y-82931000D02*
X211455000Y-83058000D01*
X214947500Y-83058000D02*
X215265000Y-83375500D01*
X207899000Y-86360000D02*
X211328000Y-82931000D01*
X215265000Y-83375500D02*
X215265000Y-88836500D01*
X207899000Y-92329000D02*
X207899000Y-86360000D01*
X208788000Y-93218000D02*
X207899000Y-92329000D01*
X211264500Y-93218000D02*
X208788000Y-93218000D01*
X212725000Y-94678500D02*
X211264500Y-93218000D01*
X212725000Y-96456500D02*
X212725000Y-94678500D01*
%TD*%
M02*
